<svg xmlns="http://www.w3.org/2000/svg" xmlns:xlink="http://www.w3.org/1999/xlink" width="2000" zoomAndPan="magnify" viewBox="0 0 1500 1499.999933" height="2000" preserveAspectRatio="xMidYMid meet" version="1.0"><defs><clipPath id="ea310c2be2"><path d="M 241.46875 691 L 1001 691 L 1001 1450.320312 L 241.46875 1450.320312 Z M 241.46875 691 " clip-rule="nonzero"/></clipPath><clipPath id="2de3700caa"><path d="M 254 92.820312 L 1347.71875 92.820312 L 1347.71875 741 L 254 741 Z M 254 92.820312 " clip-rule="nonzero"/></clipPath></defs><g clip-path="url(#ea310c2be2)"><path fill="#f6f4f0" d="M 241.636719 1450.207031 C 241.636719 1031.132812 581.367188 691.402344 1000.445312 691.402344 L 1000.445312 976.773438 C 738.976562 976.773438 527.011719 1188.734375 527.011719 1450.203125 L 241.640625 1450.203125 Z M 241.636719 1450.207031 " fill-opacity="1" fill-rule="evenodd"/></g><g clip-path="url(#2de3700caa)"><path fill="#f6f4f0" d="M 601.214844 740.519531 L 601.214844 518.703125 C 601.214844 441.417969 664.433594 378.195312 741.722656 378.195312 L 1347.566406 378.195312 L 1347.566406 92.820312 L 680.292969 92.820312 C 672.957031 92.820312 665.679688 93.019531 658.429688 93.382812 L 254.40625 93.382812 L 254.40625 740.515625 L 601.214844 740.515625 Z M 601.214844 740.519531 " fill-opacity="1" fill-rule="evenodd"/></g></svg>