<svg xmlns="http://www.w3.org/2000/svg" xmlns:xlink="http://www.w3.org/1999/xlink" width="2000" zoomAndPan="magnify" viewBox="0 0 1500 1499.999933" height="2000" preserveAspectRatio="xMidYMid meet" version="1.0"><defs><clipPath id="ead2f38dc2"><path d="M 241.46875 691 L 1001 691 L 1001 1450.320312 L 241.46875 1450.320312 Z M 241.46875 691 " clip-rule="nonzero"/></clipPath><clipPath id="371304cdf1"><path d="M 254 92.820312 L 1347.71875 92.820312 L 1347.71875 741 L 254 741 Z M 254 92.820312 " clip-rule="nonzero"/></clipPath></defs><g clip-path="url(#ead2f38dc2)"><path fill="#000000" d="M 241.636719 1450.3125 C 241.636719 1031.203125 581.359375 691.445312 1000.429688 691.445312 L 1000.429688 976.839844 C 738.964844 976.839844 527.007812 1188.820312 527.007812 1450.308594 L 241.640625 1450.308594 Z M 241.636719 1450.3125 " fill-opacity="1" fill-rule="evenodd"/></g><g clip-path="url(#371304cdf1)"><path fill="#000000" d="M 601.207031 740.570312 L 601.207031 518.738281 C 601.207031 441.445312 664.425781 378.21875 741.710938 378.21875 L 1347.542969 378.21875 L 1347.542969 92.820312 L 680.285156 92.820312 C 672.949219 92.820312 665.671875 93.019531 658.421875 93.382812 L 254.40625 93.382812 L 254.40625 740.566406 L 601.207031 740.566406 Z M 601.207031 740.570312 " fill-opacity="1" fill-rule="evenodd"/></g></svg>